<svg width="15" height="14" viewBox="0 0 15 14" fill="none" xmlns="http://www.w3.org/2000/svg">
<path d="M8.1875 13.8125C8.0625 13.9687 7.8125 13.9687 7.65625 13.8125L1.125 7.28125C0.96875 7.125 0.96875 6.90625 1.125 6.75L7.65625 0.21875C7.8125 0.0624997 8.0625 0.0624996 8.1875 0.21875L8.8125 0.8125C8.96875 0.96875 8.96875 1.21875 8.8125 1.34375L3.96875 6.1875L14.625 6.1875C14.8437 6.1875 15 6.375 15 6.5625L15 7.4375C15 7.65625 14.8437 7.8125 14.625 7.8125L3.96875 7.8125L8.8125 12.6875C8.96875 12.8125 8.96875 13.0625 8.8125 13.2187L8.1875 13.8125Z" fill="#181818"/>
</svg>
