<svg width="15" height="14" viewBox="0 0 15 14" fill="none" xmlns="http://www.w3.org/2000/svg">
<path d="M6.8125 0.1875C6.9375 0.0312501 7.1875 0.0312501 7.34375 0.1875L13.875 6.71875C14.0313 6.875 14.0313 7.09375 13.875 7.25L7.34375 13.7813C7.1875 13.9375 6.9375 13.9375 6.8125 13.7813L6.1875 13.1875C6.03125 13.0313 6.03125 12.7813 6.1875 12.6563L11.0313 7.8125L0.375 7.8125C0.15625 7.8125 9.09272e-08 7.625 8.86913e-08 7.4375L7.8257e-08 6.5625C7.56485e-08 6.34375 0.15625 6.1875 0.375 6.1875L11.0313 6.1875L6.1875 1.3125C6.03125 1.1875 6.03125 0.9375 6.1875 0.78125L6.8125 0.1875Z" fill="#181818"/>
</svg>
