<svg width="19" height="16" viewBox="0 0 19 16" fill="none" xmlns="http://www.w3.org/2000/svg">
<path d="M15.7385 13.0795V13.5927C15.7385 14.4588 15.0328 15.1324 14.1988 15.1324L1.88091 15.1324C1.01481 15.1324 0.34118 14.4588 0.34118 13.5927L0.34118 5.38079C0.34118 4.54677 1.01481 3.84106 1.88091 3.84106H2.39416L2.39416 5.38079H2.07338C1.94507 5.38079 1.88091 5.47703 1.88091 5.57326L1.88091 13.4002C1.88091 13.5286 1.94507 13.5927 2.07338 13.5927L14.0063 13.5927C14.1026 13.5927 14.1988 13.5286 14.1988 13.4002V13.0795H15.7385ZM17.0858 2.30132L5.15285 2.30132C5.02454 2.30132 4.96038 2.39756 4.96038 2.49379L4.96038 10.3208C4.96038 10.4491 5.02454 10.5132 5.15285 10.5132L17.0858 10.5132C17.182 10.5132 17.2783 10.4491 17.2783 10.3208V2.49379C17.2783 2.39756 17.182 2.30132 17.0858 2.30132ZM17.2783 0.761587C18.1123 0.761587 18.818 1.4673 18.818 2.30132V10.5132C18.818 11.3793 18.1123 12.053 17.2783 12.053L4.96038 12.053C4.09428 12.053 3.42065 11.3793 3.42065 10.5132L3.42065 2.30132C3.42065 1.4673 4.09428 0.761587 4.96038 0.761587L17.2783 0.761587ZM8.80972 4.3543C8.80972 5.09209 8.23232 5.63741 7.52661 5.63741C6.78882 5.63741 6.2435 5.09209 6.2435 4.3543C6.2435 3.64859 6.78882 3.07119 7.52661 3.07119C8.23232 3.07119 8.80972 3.64859 8.80972 4.3543ZM6.50012 7.43377L7.75115 6.18274C7.91154 6.02235 8.13609 6.02235 8.29648 6.18274L9.57959 7.43377L12.8836 4.12976C13.044 3.96937 13.2685 3.96937 13.4289 4.12976L15.7385 6.40728V8.97351H6.50012L6.50012 7.43377Z" fill="white"/>
</svg>
